<svg width="27" height="21" viewBox="0 0 27 21" fill="none" xmlns="http://www.w3.org/2000/svg">
<path d="M26.8791 10.1763L24.0666 3.61381C23.9948 3.44435 23.8748 3.29977 23.7214 3.19808C23.568 3.09639 23.3881 3.04208 23.2041 3.04193H20.3916V1.16693C20.3916 0.918291 20.2928 0.679834 20.117 0.504019C19.9412 0.328203 19.7027 0.229431 19.4541 0.229431H1.6416C1.39296 0.229431 1.1545 0.328203 0.978689 0.504019C0.802874 0.679834 0.704102 0.918291 0.704102 1.16693V17.1044C0.704102 17.3531 0.802874 17.5915 0.978689 17.7673C1.1545 17.9432 1.39296 18.0419 1.6416 18.0419H3.64785C3.86374 18.8363 4.33504 19.5376 4.98904 20.0376C5.64303 20.5376 6.44338 20.8085 7.2666 20.8085C8.08982 20.8085 8.89017 20.5376 9.54417 20.0376C10.1982 19.5376 10.6695 18.8363 10.8854 18.0419H16.7729C16.9887 18.8363 17.46 19.5376 18.114 20.0376C18.768 20.5376 19.5684 20.8085 20.3916 20.8085C21.2148 20.8085 22.0152 20.5376 22.6692 20.0376C23.3232 19.5376 23.7945 18.8363 24.0104 18.0419H26.0166C26.2652 18.0419 26.5037 17.9432 26.6795 17.7673C26.8553 17.5915 26.9541 17.3531 26.9541 17.1044V10.5419C26.9539 10.4163 26.9284 10.2919 26.8791 10.1763ZM20.3916 4.91693H22.5854L24.5916 9.60443H20.3916V4.91693ZM7.2666 18.9794C6.89576 18.9794 6.53325 18.8695 6.22491 18.6634C5.91657 18.4574 5.67624 18.1646 5.53433 17.822C5.39241 17.4794 5.35528 17.1024 5.42763 16.7386C5.49998 16.3749 5.67855 16.0408 5.94078 15.7786C6.203 15.5164 6.53709 15.3378 6.90081 15.2655C7.26452 15.1931 7.64152 15.2302 7.98413 15.3722C8.32674 15.5141 8.61958 15.7544 8.82561 16.0627C9.03163 16.3711 9.1416 16.7336 9.1416 17.1044C9.1416 17.6017 8.94406 18.0786 8.59243 18.4303C8.2408 18.7819 7.76388 18.9794 7.2666 18.9794ZM16.7729 16.1669H10.8854C10.6695 15.3725 10.1982 14.6712 9.54417 14.1712C8.89017 13.6713 8.08982 13.4004 7.2666 13.4004C6.44338 13.4004 5.64303 13.6713 4.98904 14.1712C4.33504 14.6712 3.86374 15.3725 3.64785 16.1669H2.5791V2.10443H18.5166V13.8794C18.0897 14.1272 17.7159 14.4568 17.4167 14.8493C17.1175 15.2419 16.8987 15.6896 16.7729 16.1669ZM20.3916 18.9794C20.0208 18.9794 19.6582 18.8695 19.3499 18.6634C19.0416 18.4574 18.8012 18.1646 18.6593 17.822C18.5174 17.4794 18.4803 17.1024 18.5526 16.7386C18.625 16.3749 18.8036 16.0408 19.0658 15.7786C19.328 15.5164 19.6621 15.3378 20.0258 15.2655C20.3895 15.1931 20.7665 15.2302 21.1091 15.3722C21.4517 15.5141 21.7446 15.7544 21.9506 16.0627C22.1566 16.3711 22.2666 16.7336 22.2666 17.1044C22.2666 17.6017 22.0691 18.0786 21.7174 18.4303C21.3658 18.7819 20.8889 18.9794 20.3916 18.9794ZM25.0791 16.1669H24.0104C23.803 15.364 23.3354 14.6524 22.6806 14.1435C22.0259 13.6346 21.2209 13.3571 20.3916 13.3544V11.4794H25.0791V16.1669Z" fill="#989898"/>
</svg>
