<svg width="24" height="20" viewBox="0 0 24 20" fill="none" xmlns="http://www.w3.org/2000/svg">
<path d="M1.79624 16.2502C1.44219 16.2502 1.15061 16.1302 0.92152 15.8902C0.692427 15.651 0.577881 15.3544 0.577881 15.0002C0.577881 14.646 0.697842 14.3489 0.937765 14.1089C1.17685 13.8698 1.47343 13.7502 1.82748 13.7502H21.8523C22.2063 13.7502 22.4979 13.8698 22.727 14.1089C22.9561 14.3489 23.0706 14.646 23.0706 15.0002C23.0706 15.3544 22.9507 15.651 22.7108 15.8902C22.4717 16.1302 22.1751 16.2502 21.821 16.2502H1.79624ZM1.17144 20.0002C1.00483 20.0002 0.864455 19.9377 0.750325 19.8127C0.635362 19.6877 0.577881 19.5418 0.577881 19.3752C0.577881 19.2085 0.640361 19.0627 0.765321 18.9377C0.89028 18.8127 1.03607 18.7502 1.20268 18.7502H22.4771C22.6437 18.7502 22.7845 18.8127 22.8994 18.9377C23.0136 19.0627 23.0706 19.2085 23.0706 19.3752C23.0706 19.5418 23.0082 19.6877 22.8832 19.8127C22.7582 19.9377 22.6125 20.0002 22.4458 20.0002H1.17144ZM1.82748 11.2502C1.47343 11.2502 1.17685 11.1302 0.937765 10.8902C0.697842 10.651 0.577881 10.3544 0.577881 10.0002V8.75018C0.577881 8.39602 0.697842 8.09893 0.937765 7.85893C1.17685 7.61977 1.47343 7.50018 1.82748 7.50018H21.821C22.1751 7.50018 22.4717 7.61977 22.7108 7.85893C22.9507 8.09893 23.0706 8.39602 23.0706 8.75018V10.0002C23.0706 10.3544 22.9507 10.651 22.7108 10.8902C22.4717 11.1302 22.1751 11.2502 21.821 11.2502H1.82748ZM1.82748 5.00018C1.47343 5.00018 1.17685 4.8806 0.937765 4.64143C0.697842 4.40143 0.577881 4.10435 0.577881 3.75018V1.25018C0.577881 0.896016 0.697842 0.598933 0.937765 0.358933C1.17685 0.119767 1.47343 0.000183105 1.82748 0.000183105H21.821C22.1751 0.000183105 22.4717 0.119767 22.7108 0.358933C22.9507 0.598933 23.0706 0.896016 23.0706 1.25018V3.75018C23.0706 4.10435 22.9507 4.40143 22.7108 4.64143C22.4717 4.8806 22.1751 5.00018 21.821 5.00018H1.82748Z" fill="#989898" />
</svg>
