<svg width="153" height="18" viewBox="0 0 153 18" fill="none" xmlns="http://www.w3.org/2000/svg">
<path d="M0.0473233 17.5001L3.40732 0.700121H15.2393L14.5913 3.86812H5.66332L6.71932 2.98012L3.88732 17.5001H0.0473233ZM14.2008 17.5001L17.5608 0.700121H24.3528C26.4488 0.700121 28.0648 1.16412 29.2008 2.09212C30.3528 3.00412 30.9288 4.28412 30.9288 5.93212C30.9288 7.34012 30.6008 8.57212 29.9448 9.62812C29.2888 10.6681 28.3448 11.4681 27.1128 12.0281C25.8968 12.5881 24.4488 12.8681 22.7688 12.8681H17.3208L19.3848 11.0921L18.1128 17.5001H14.2008ZM19.2888 11.5481L17.9208 9.70012H22.9368C24.2168 9.70012 25.2088 9.41212 25.9128 8.83612C26.6328 8.24412 26.9928 7.38812 26.9928 6.26812C26.9928 5.45212 26.7208 4.85212 26.1768 4.46812C25.6328 4.06812 24.8648 3.86812 23.8728 3.86812H19.1448L21.2088 1.97212L19.2888 11.5481ZM32.3215 14.2841C32.8975 14.4761 33.4255 14.5641 33.9055 14.5481C34.4015 14.5321 34.8735 14.4121 35.3215 14.1881C35.7855 13.9481 36.2175 13.5881 36.6175 13.1081L37.6735 12.0041L38.1055 11.5961L45.9055 0.700121H49.7935L40.0015 14.1161C39.1375 15.3001 38.2095 16.1961 37.2175 16.8041C36.2255 17.4121 35.2015 17.7401 34.1455 17.7881C33.0895 17.8361 32.0495 17.6281 31.0255 17.1641L32.3215 14.2841ZM37.6015 14.8361L32.7775 0.700121H36.8335L40.1935 11.9801L37.6015 14.8361ZM53.6778 17.7881C52.5578 17.7881 51.4298 17.6441 50.2938 17.3561C49.1738 17.0521 48.1338 16.5801 47.1738 15.9401L48.9498 13.1561C49.6378 13.6361 50.3978 13.9881 51.2298 14.2121C52.0778 14.4361 52.9098 14.5481 53.7258 14.5481C54.3178 14.5481 54.8858 14.4921 55.4298 14.3801C55.9738 14.2681 56.4538 14.1001 56.8698 13.8761C57.2858 13.6521 57.6138 13.3801 57.8538 13.0601C58.0938 12.7401 58.2138 12.3801 58.2138 11.9801C58.2138 11.4521 58.0058 11.0521 57.5898 10.7801C57.1738 10.4921 56.5498 10.3481 55.7178 10.3481H51.5658L52.1418 7.42012H56.0298C56.6058 7.42012 57.1018 7.33212 57.5178 7.15612C57.9498 6.98012 58.2778 6.74812 58.5018 6.46012C58.7418 6.15612 58.8618 5.80412 58.8618 5.40412C58.8618 5.00412 58.7258 4.66812 58.4538 4.39612C58.1978 4.10812 57.8378 3.90012 57.3738 3.77212C56.9258 3.62812 56.4058 3.55612 55.8138 3.55612C55.1258 3.55612 54.3738 3.65212 53.5578 3.84412C52.7418 4.03612 51.9178 4.34012 51.0858 4.75612L50.5098 1.73212C51.5018 1.28412 52.5018 0.948121 53.5098 0.724121C54.5178 0.500121 55.4858 0.388121 56.4138 0.388121C57.6298 0.388121 58.7258 0.564121 59.7018 0.916121C60.6778 1.25212 61.4538 1.74812 62.0298 2.40412C62.6218 3.04412 62.9178 3.81212 62.9178 4.70812C62.9178 5.55612 62.6618 6.32412 62.1498 7.01212C61.6378 7.70012 60.9418 8.24412 60.0618 8.64412C59.1818 9.04412 58.1978 9.24412 57.1098 9.24412L57.3738 8.38012C58.3178 8.38012 59.1418 8.54812 59.8458 8.88412C60.5498 9.20412 61.1018 9.66012 61.5018 10.2521C61.9018 10.8281 62.1018 11.5081 62.1018 12.2921C62.1018 13.1241 61.8698 13.8841 61.4058 14.5721C60.9418 15.2441 60.3178 15.8201 59.5338 16.3001C58.7498 16.7641 57.8538 17.1321 56.8458 17.4041C55.8378 17.6601 54.7818 17.7881 53.6778 17.7881ZM72.8592 17.7881C71.1632 17.7881 69.6992 17.4841 68.4672 16.8761C67.2512 16.2521 66.3152 15.3961 65.6592 14.3081C65.0032 13.2041 64.6752 11.9321 64.6752 10.4921C64.6752 9.05212 64.9232 7.72412 65.4192 6.50812C65.9152 5.27612 66.6192 4.21212 67.5312 3.31612C68.4592 2.40412 69.5552 1.69212 70.8192 1.18012C72.0992 0.668122 73.5152 0.412122 75.0672 0.412122C76.7632 0.412122 78.2192 0.724122 79.4352 1.34812C80.6672 1.95612 81.6112 2.81212 82.2672 3.91612C82.9232 5.00412 83.2512 6.26812 83.2512 7.70812C83.2512 9.14812 83.0032 10.4841 82.5072 11.7161C82.0112 12.9321 81.2992 13.9961 80.3712 14.9081C79.4592 15.8041 78.3632 16.5081 77.0832 17.0201C75.8192 17.5321 74.4112 17.7881 72.8592 17.7881ZM73.1952 14.4761C74.1392 14.4761 74.9872 14.3081 75.7392 13.9721C76.5072 13.6201 77.1552 13.1401 77.6832 12.5321C78.2112 11.9241 78.6112 11.2281 78.8832 10.4441C79.1712 9.64412 79.3152 8.80412 79.3152 7.92412C79.3152 7.09212 79.1392 6.36412 78.7872 5.74012C78.4352 5.10012 77.9152 4.60412 77.2272 4.25212C76.5552 3.90012 75.7232 3.72412 74.7312 3.72412C73.7872 3.72412 72.9392 3.90012 72.1872 4.25212C71.4352 4.58812 70.7872 5.06012 70.2432 5.66812C69.7152 6.27612 69.3072 6.98012 69.0192 7.78012C68.7472 8.56412 68.6112 9.39612 68.6112 10.2761C68.6112 11.1081 68.7872 11.8441 69.1392 12.4841C69.5072 13.1081 70.0272 13.5961 70.6992 13.9481C71.3872 14.3001 72.2192 14.4761 73.1952 14.4761ZM84.4429 17.5001L87.8029 0.700121H95.9149C97.7389 0.700121 99.1309 1.02812 100.091 1.68412C101.067 2.34012 101.555 3.29212 101.555 4.54012C101.555 5.59612 101.275 6.48412 100.715 7.20412C100.171 7.92412 99.4429 8.46812 98.5309 8.83612C97.6189 9.20412 96.6269 9.38812 95.5549 9.38812L96.1789 8.42812C97.5869 8.42812 98.7069 8.75612 99.5389 9.41212C100.387 10.0521 100.811 10.9801 100.811 12.1961C100.811 13.3801 100.483 14.3721 99.8269 15.1721C99.1869 15.9561 98.2989 16.5401 97.1629 16.9241C96.0269 17.3081 94.7229 17.5001 93.2509 17.5001H84.4429ZM88.9069 14.5721H93.4909C94.5629 14.5721 95.4029 14.3721 96.0109 13.9721C96.6349 13.5561 96.9469 12.9481 96.9469 12.1481C96.9469 11.5241 96.7149 11.0841 96.2509 10.8281C95.8029 10.5561 95.1949 10.4201 94.4269 10.4201H89.2909L89.8669 7.58812H94.2349C94.9069 7.58812 95.4829 7.50012 95.9629 7.32412C96.4589 7.14812 96.8349 6.88412 97.0909 6.53212C97.3469 6.16412 97.4749 5.72412 97.4749 5.21212C97.4749 4.65212 97.2589 4.25212 96.8269 4.01212C96.3949 3.75612 95.7869 3.62812 95.0029 3.62812H91.0669L88.9069 14.5721ZM102.915 17.5001L106.275 0.700121H110.115L107.883 11.6441L118.083 0.700121H121.779L118.419 17.5001H114.579L116.835 6.58012L106.611 17.5001H102.915ZM122.625 17.5001L125.985 0.700121H129.873L126.513 17.5001H122.625ZM126.729 10.7081L127.353 7.49212H133.233L132.609 10.7081H126.729ZM133.761 17.5001L130.137 9.38812L133.377 7.58812L137.937 17.5001H133.761ZM133.473 9.50812L129.729 9.07612L136.857 0.700121H141.225L133.473 9.50812ZM143.956 14.6441L146.164 3.55612H149.284L147.076 14.6441H143.956ZM140.62 10.5641L141.196 7.63612H152.62L152.044 10.5641H140.62Z" fill="#0C4467"/>
</svg>
