<svg width="30" height="30" viewBox="0 0 30 30" fill="none" xmlns="http://www.w3.org/2000/svg">
<path d="M26.059 18.5695L20.5383 16.0957L20.523 16.0887C20.2364 15.9661 19.9238 15.9169 19.6134 15.9455C19.303 15.9742 19.0046 16.0798 18.7453 16.2527C18.7148 16.2729 18.6854 16.2948 18.6574 16.3184L15.8051 18.75C13.998 17.8723 12.1324 16.0207 11.2547 14.2371L13.6898 11.3414C13.7133 11.3121 13.7355 11.2828 13.7566 11.2512C13.9259 10.9925 14.0286 10.6961 14.0556 10.3882C14.0826 10.0803 14.033 9.77047 13.9113 9.48633V9.47227L11.4305 3.94219C11.2696 3.57102 10.993 3.26182 10.642 3.06076C10.291 2.85969 9.88435 2.77754 9.48281 2.82657C7.89488 3.03552 6.43731 3.81536 5.38234 5.02043C4.32736 6.2255 3.74712 7.7734 3.75 9.37501C3.75 18.6797 11.3203 26.25 20.625 26.25C22.2266 26.2529 23.7745 25.6726 24.9796 24.6177C26.1846 23.5627 26.9645 22.1051 27.1734 20.5172C27.2226 20.1158 27.1406 19.7093 26.9397 19.3582C26.7389 19.0072 26.4299 18.7306 26.059 18.5695ZM20.625 24.375C16.6481 24.3707 12.8353 22.7889 10.0232 19.9768C7.21108 17.1647 5.62934 13.3519 5.625 9.37501C5.62059 8.23066 6.03287 7.12383 6.78484 6.26123C7.53682 5.39862 8.57707 4.83923 9.71132 4.68751C9.71086 4.69218 9.71086 4.69689 9.71132 4.70157L12.1723 10.2094L9.74999 13.1086C9.72541 13.1369 9.70308 13.1671 9.6832 13.1988C9.50685 13.4694 9.4034 13.781 9.38286 14.1034C9.36233 14.4257 9.42542 14.7479 9.56601 15.0387C10.6277 17.2102 12.8156 19.3816 15.0105 20.4422C15.3035 20.5815 15.6275 20.6424 15.951 20.619C16.2745 20.5955 16.5864 20.4886 16.8562 20.3086C16.8863 20.2883 16.9153 20.2664 16.943 20.243L19.7918 17.8125L25.2996 20.2793H25.3125C25.1626 21.4152 24.6041 22.4575 23.7413 23.2113C22.8785 23.9652 21.7707 24.3789 20.625 24.375Z" fill="#0C4467"/>
</svg>
