<svg width="20" height="20" viewBox="0 0 20 20" fill="none" xmlns="http://www.w3.org/2000/svg">
<path d="M18.5139 13.0416L14.0973 11.0625L14.0851 11.0569C13.8559 10.9588 13.6057 10.9195 13.3574 10.9424C13.1091 10.9653 12.8704 11.0498 12.6629 11.1881C12.6385 11.2043 12.615 11.2218 12.5926 11.2406L10.3108 13.1859C8.86513 12.4838 7.37263 11.0025 6.67045 9.57563L8.61857 7.25906C8.63732 7.23563 8.65513 7.21219 8.67201 7.18688C8.80741 6.97997 8.88956 6.7428 8.91115 6.49648C8.93274 6.25015 8.8931 6.0023 8.79576 5.775V5.76375L6.81107 1.33969C6.68239 1.04275 6.46112 0.795389 6.18031 0.634536C5.89949 0.473683 5.57418 0.407963 5.25295 0.447187C3.9826 0.61435 2.81655 1.23822 1.97257 2.20228C1.12859 3.16633 0.664399 4.40465 0.666695 5.68594C0.666695 13.1297 6.72295 19.1859 14.1667 19.1859C15.448 19.1882 16.6863 18.724 17.6504 17.8801C18.6144 17.0361 19.2383 15.87 19.4054 14.5997C19.4447 14.2786 19.3792 13.9533 19.2185 13.6725C19.0578 13.3917 18.8106 13.1704 18.5139 13.0416ZM14.1667 17.6859C10.9852 17.6825 7.93493 16.4171 5.68525 14.1674C3.43557 11.9177 2.17017 8.86747 2.1667 5.68594C2.16317 4.77046 2.49299 3.885 3.09457 3.19491C3.69615 2.50483 4.52835 2.05731 5.43576 1.93594C5.43539 1.93968 5.43539 1.94345 5.43576 1.94719L7.40451 6.35344L5.4667 8.67281C5.44703 8.69545 5.42916 8.71958 5.41326 8.745C5.27218 8.96149 5.18942 9.21075 5.17299 9.46862C5.15657 9.7265 5.20703 9.98424 5.31951 10.2169C6.16888 11.9541 7.9192 13.6913 9.67513 14.5397C9.90947 14.6511 10.1687 14.6998 10.4275 14.6811C10.6863 14.6624 10.9358 14.5768 11.1517 14.4328C11.1758 14.4166 11.1989 14.3991 11.2211 14.3803L13.5001 12.4359L17.9064 14.4094H17.9167C17.7968 15.3181 17.35 16.1519 16.6597 16.755C15.9695 17.3581 15.0833 17.689 14.1667 17.6859Z" fill="white"/>
</svg>
