<svg width="20" height="22" viewBox="0 0 20 22" fill="none" xmlns="http://www.w3.org/2000/svg">
<path fill-rule="evenodd" clip-rule="evenodd" d="M14.5513 13.4775C15.9114 13.4775 17.2189 13.9999 18.2012 14.9356C19.1835 15.8714 19.7648 17.1482 19.8238 18.4999L19.8291 18.7278V20.8279C19.8288 21.0955 19.7258 21.3529 19.5411 21.5476C19.3564 21.7422 19.104 21.8593 18.8354 21.875C18.5668 21.8906 18.3024 21.8037 18.0961 21.6319C17.8897 21.4602 17.7572 21.2165 17.7254 20.9507L17.718 20.8279V18.7278C17.718 17.9242 17.4094 17.1511 16.8553 16.5665C16.3012 15.9818 15.5434 15.63 14.7371 15.5828L14.5513 15.5776H6.10688C5.29916 15.5775 4.52195 15.8845 3.93427 16.4358C3.34659 16.987 2.99288 17.7408 2.94549 18.5429L2.94021 18.7278V20.8279C2.93991 21.0955 2.8369 21.3529 2.65221 21.5476C2.46752 21.7422 2.2151 21.8593 1.94652 21.875C1.67794 21.8906 1.41348 21.8037 1.20717 21.6319C1.00086 21.4602 0.868266 21.2165 0.83649 20.9507L0.829102 20.8279V18.7278C0.82918 17.3748 1.35428 16.0741 2.29491 15.0969C3.23553 14.1197 4.51906 13.5414 5.87782 13.4827L6.10688 13.4775H14.5513ZM10.3291 0.87677C11.7289 0.87677 13.0713 1.42992 14.0611 2.41454C15.0508 3.39917 15.6069 4.7346 15.6069 6.12706C15.6069 7.51952 15.0508 8.85496 14.0611 9.83958C13.0713 10.8242 11.7289 11.3774 10.3291 11.3774C8.92935 11.3774 7.58692 10.8242 6.59715 9.83958C5.60737 8.85496 5.05132 7.51952 5.05132 6.12706C5.05132 4.7346 5.60737 3.39917 6.59715 2.41454C7.58692 1.42992 8.92935 0.87677 10.3291 0.87677ZM10.3291 2.97689C9.91325 2.97689 9.50147 3.05837 9.11727 3.21668C8.73307 3.37499 8.38398 3.60703 8.08993 3.89955C7.79588 4.19207 7.56262 4.53934 7.40348 4.92154C7.24434 5.30374 7.16244 5.71337 7.16244 6.12706C7.16244 6.54075 7.24434 6.95038 7.40348 7.33258C7.56262 7.71478 7.79588 8.06205 8.08993 8.35457C8.38398 8.64709 8.73307 8.87913 9.11727 9.03744C9.50147 9.19575 9.91325 9.27724 10.3291 9.27724C11.169 9.27724 11.9744 8.94534 12.5683 8.35457C13.1621 7.7638 13.4958 6.96254 13.4958 6.12706C13.4958 5.29158 13.1621 4.49032 12.5683 3.89955C11.9744 3.30878 11.169 2.97689 10.3291 2.97689Z" fill="#989898"/>
</svg>
