<svg width="25" height="24" viewBox="0 0 25 24" fill="none" xmlns="http://www.w3.org/2000/svg">
<path d="M12.5456 3.00072C7.02557 3.00072 2.55557 7.48072 2.55557 13.0007C2.55557 18.5207 7.02557 23.0007 12.5456 23.0007C18.0756 23.0007 22.5556 18.5207 22.5556 13.0007C22.5556 7.48072 18.0756 3.00072 12.5456 3.00072ZM12.5556 21.0007C8.13557 21.0007 4.55557 17.4207 4.55557 13.0007C4.55557 8.58072 8.13557 5.00072 12.5556 5.00072C16.9756 5.00072 20.5556 8.58072 20.5556 13.0007C20.5556 17.4207 16.9756 21.0007 12.5556 21.0007Z" fill="white"/>
<path d="M13.0556 8.00075H11.5556V14.0007L16.8056 17.1507L17.5556 15.9207L13.0556 13.2507V8.00075Z" fill="white"/>
</svg>
