<svg width="30" height="30" viewBox="0 0 30 30" fill="none" xmlns="http://www.w3.org/2000/svg">
<circle cx="15" cy="15" r="15" fill="#34A853"/>
<path d="M15 15C15.55 15 16.021 14.804 16.413 14.412C16.8043 14.0207 17 13.55 17 13C17 12.45 16.8043 11.979 16.413 11.587C16.021 11.1957 15.55 11 15 11C14.45 11 13.9793 11.1957 13.588 11.587C13.196 11.979 13 12.45 13 13C13 13.55 13.196 14.0207 13.588 14.412C13.9793 14.804 14.45 15 15 15ZM15 22.35C17.0333 20.4833 18.5417 18.7873 19.525 17.262C20.5083 15.7373 21 14.3833 21 13.2C21 11.3833 20.4207 9.89567 19.262 8.737C18.104 7.579 16.6833 7 15 7C13.3167 7 11.8957 7.579 10.737 8.737C9.579 9.89567 9 11.3833 9 13.2C9 14.3833 9.49167 15.7373 10.475 17.262C11.4583 18.7873 12.9667 20.4833 15 22.35ZM15 24.625C14.8667 24.625 14.7333 24.6 14.6 24.55C14.4667 24.5 14.35 24.4333 14.25 24.35C11.8167 22.2 10 20.2043 8.8 18.363C7.6 16.521 7 14.8 7 13.2C7 10.7 7.80433 8.70833 9.413 7.225C11.021 5.74167 12.8833 5 15 5C17.1167 5 18.979 5.74167 20.587 7.225C22.1957 8.70833 23 10.7 23 13.2C23 14.8 22.4 16.521 21.2 18.363C20 20.2043 18.1833 22.2 15.75 24.35C15.65 24.4333 15.5333 24.5 15.4 24.55C15.2667 24.6 15.1333 24.625 15 24.625Z" fill="white"/>
</svg>
