<svg width="30" height="30" viewBox="0 0 30 30" fill="none" xmlns="http://www.w3.org/2000/svg">
<path d="M11.28 0.911865C11.6998 0.911974 12.1088 1.04415 12.4493 1.28967C12.7898 1.53519 13.0444 1.88162 13.177 2.27987L13.72 3.91187H17C17.2652 3.91187 17.5196 4.01722 17.7071 4.20476C17.8946 4.3923 18 4.64665 18 4.91187C18 5.17708 17.8946 5.43144 17.7071 5.61897C17.5196 5.80651 17.2652 5.91187 17 5.91187L16.997 5.98287L16.13 18.1259C16.0759 18.8825 15.7372 19.5905 15.182 20.1074C14.6269 20.6243 13.8965 20.9118 13.138 20.9119H4.862C4.10346 20.9118 3.37311 20.6243 2.81797 20.1074C2.26283 19.5905 1.92411 18.8825 1.87 18.1259L1.003 5.98187C1.00119 5.95857 1.00019 5.93523 1 5.91187C0.734784 5.91187 0.48043 5.80651 0.292893 5.61897C0.105357 5.43144 0 5.17708 0 4.91187C0 4.64665 0.105357 4.3923 0.292893 4.20476C0.48043 4.01722 0.734784 3.91187 1 3.91187H4.28L4.823 2.27987C4.9557 1.88145 5.21043 1.53492 5.5511 1.28938C5.89176 1.04384 6.30107 0.911764 6.721 0.911865H11.28ZM14.997 5.91187H3.003L3.865 17.9829C3.88295 18.2351 3.99577 18.4711 4.18076 18.6435C4.36574 18.8158 4.60916 18.9117 4.862 18.9119H13.138C13.3908 18.9117 13.6343 18.8158 13.8192 18.6435C14.0042 18.4711 14.117 18.2351 14.135 17.9829L14.997 5.91187ZM7 8.91187C7.24493 8.9119 7.48134 9.00182 7.66437 9.16458C7.84741 9.32734 7.96434 9.55161 7.993 9.79487L8 9.91187V14.9119C7.99972 15.1667 7.90212 15.4119 7.72715 15.5972C7.55218 15.7826 7.31305 15.8941 7.05861 15.909C6.80416 15.924 6.55362 15.8412 6.35817 15.6776C6.16271 15.514 6.0371 15.282 6.007 15.0289L6 14.9119V9.91187C6 9.64665 6.10536 9.39229 6.29289 9.20476C6.48043 9.01722 6.73478 8.91187 7 8.91187ZM11 8.91187C11.2652 8.91187 11.5196 9.01722 11.7071 9.20476C11.8946 9.39229 12 9.64665 12 9.91187V14.9119C12 15.1771 11.8946 15.4314 11.7071 15.619C11.5196 15.8065 11.2652 15.9119 11 15.9119C10.7348 15.9119 10.4804 15.8065 10.2929 15.619C10.1054 15.4314 10 15.1771 10 14.9119V9.91187C10 9.64665 10.1054 9.39229 10.2929 9.20476C10.4804 9.01722 10.7348 8.91187 11 8.91187ZM11.28 2.91187H6.72L6.387 3.91187H11.613L11.28 2.91187Z" fill="#0C4467"/>
</svg>
